HIERARCHY
ROOT Hips
{
	OFFSET 0.0000 0.0000 0.0000
	CHANNELS 6 Xposition Yposition Zposition Zrotation Xrotation Yrotation
	JOINT Ab
	{
		OFFSET -0.0000 8.1305 -0.0000
		CHANNELS 3 Zrotation Xrotation Yrotation
		JOINT Chest
		{
			OFFSET -0.0000 26.2902 -0.0000
			CHANNELS 3 Zrotation Xrotation Yrotation
			JOINT Neck
			{
				OFFSET -0.0000 26.2902 0.0000
				CHANNELS 3 Zrotation Xrotation Yrotation
				JOINT Head
				{
					OFFSET -0.0000 10.8167 0.0000
					CHANNELS 3 Zrotation Xrotation Yrotation
					End Site
					{
						OFFSET -0.0000 16.7167 0.0000
					}
				}
			}
			JOINT LeftCollar
			{
				OFFSET -0.0000 26.2902 0.0000
				CHANNELS 3 Zrotation Xrotation Yrotation
				JOINT LeftShoulder
				{
					OFFSET 19.6667 -0.0000 0.0000
					CHANNELS 3 Zrotation Xrotation Yrotation
					JOINT LeftElbow
					{
						OFFSET 27.2190 0.0000 0.0000
						CHANNELS 3 Zrotation Xrotation Yrotation
						JOINT LeftWrist
						{
							OFFSET 30.7431 0.0000 0.0000
							CHANNELS 3 Zrotation Xrotation Yrotation
							End Site
							{
								OFFSET 0.0000 -14.7500 0.0000
							}
						}
					}
				}
			}
			JOINT RightCollar
			{
				OFFSET -0.0000 26.2902 0.0000
				CHANNELS 3 Zrotation Xrotation Yrotation
				JOINT RightShoulder
				{
					OFFSET -19.6667 0.0000 0.0000
					CHANNELS 3 Zrotation Xrotation Yrotation
					JOINT RightElbow
					{
						OFFSET -27.2190 0.0000 0.0000
						CHANNELS 3 Zrotation Xrotation Yrotation
						JOINT RightWrist
						{
							OFFSET -30.7431 0.0000 0.0000
							CHANNELS 3 Zrotation Xrotation Yrotation
							End Site
							{
								OFFSET -0.0000 -14.7500 0.0000
							}
						}
					}
				}
			}
		}
	}
	JOINT LeftHip
	{
		OFFSET 11.8000 0.0000 0.0000
		CHANNELS 3 Zrotation Xrotation Yrotation
		JOINT LeftKnee
		{
			OFFSET -0.0000 -39.7832 0.0000
			CHANNELS 3 Zrotation Xrotation Yrotation
			JOINT LeftAnkle
			{
				OFFSET -0.0000 -41.7317 0.0000
				CHANNELS 3 Zrotation Xrotation Yrotation
				End Site
				{
					OFFSET -0.0000 -4.9167 16.7167
				}
			}
		}
	}
	JOINT RightHip
	{
		OFFSET -11.8000 0.0000 0.0000
		CHANNELS 3 Zrotation Xrotation Yrotation
		JOINT RightKnee
		{
			OFFSET -0.0000 -39.7832 0.0000
			CHANNELS 3 Zrotation Xrotation Yrotation
			JOINT RightAnkle
			{
				OFFSET -0.0000 -41.7317 0.0000
				CHANNELS 3 Zrotation Xrotation Yrotation
				End Site
				{
					OFFSET -0.0000 -4.9167 16.7167
				}
			}
		}
	}
}
MOTION
Frames: 14
Frame Time: 0.010000
-1.9853 87.0338 85.0636 358.8192 352.7526 174.1087 358.7510 346.8719 3.1807 1.0833 11.9607 3.2131 353.7803 349.0007 0.4559 0.0544 4.7961 1.0589 337.5685 356.9957 15.1197 316.8516 48.6663 352.9561 7.4202 356.8034 315.1304 85.6662 356.5745 341.8945 27.6855 356.2159 344.8653 36.8184 52.6017 14.9445 337.6335 351.2424 42.3758 266.4375 353.7146 4.7224 355.1059 331.5603 2.3567 356.9830 13.8471 357.5045 357.7801 355.8985 22.8331 3.0010 19.2624 6.7495 6.0495 11.7959 15.5311 353.2602 333.6866 325.9606 
-1.9613 86.9872 83.8703 358.3567 352.6472 174.0459 358.1480 346.7817 3.0503 0.9613 11.8513 3.1649 353.9107 348.8907 0.4787 359.8991 4.7058 1.0749 337.2124 356.9205 14.9908 317.4176 48.3980 352.9022 7.6011 356.7412 314.6959 85.8605 356.6449 342.4104 27.7701 356.2220 344.8684 37.9334 52.6024 13.9131 337.8469 351.5569 40.8986 267.1372 353.4637 5.4873 354.6215 331.0165 1.7060 356.8284 15.9854 356.8589 358.3225 356.1109 24.2546 2.4727 19.2263 6.5875 5.9791 13.0855 16.5980 354.1551 333.6741 325.4917 
-1.9344 86.9894 82.6130 357.8332 352.6841 173.9980 357.4414 346.7493 2.9466 0.9141 11.8498 3.1526 354.0846 348.6344 0.5560 359.5316 4.9037 1.1656 337.5394 356.9790 15.0123 316.2622 49.1395 353.0116 9.1710 355.7840 315.2087 85.8946 356.2519 342.8167 27.8072 356.2410 344.8325 38.9264 52.6173 12.9745 338.1342 351.9462 39.5370 267.5424 353.2409 5.9406 354.0643 330.6813 0.7822 356.5575 18.0332 357.1036 358.4917 355.7414 25.1694 1.9074 19.3209 6.8607 5.8216 14.3583 16.4799 355.6984 333.7305 326.2790 
-1.9315 87.0377 81.4011 357.3000 352.6255 174.0688 356.7301 346.7164 2.8436 0.8809 11.7667 3.1363 353.9445 348.4754 0.5360 359.6759 4.9577 1.1615 337.0421 356.9144 14.8758 317.6614 48.7030 352.2981 8.6696 356.3413 314.6689 86.8244 356.4182 343.2282 27.7603 356.2182 344.7697 40.2857 52.5480 11.7143 338.2257 352.2301 38.1332 267.7911 353.5897 5.7972 353.4718 330.3468 359.1317 355.9654 19.6802 358.7503 359.0485 355.7867 24.8845 1.3506 19.1108 6.8982 5.8420 15.8118 16.2819 357.1287 334.0900 326.9379 
-1.9175 87.1083 80.1948 356.8284 352.6216 174.1646 355.9810 346.8539 2.7883 1.0998 11.4642 3.1469 353.7193 348.5657 0.4792 359.4760 4.9716 1.1332 336.8499 356.9216 14.7072 318.0295 48.8494 351.8593 8.8010 356.2714 314.5886 86.6525 356.4149 342.9946 27.5832 356.2662 344.8242 42.1105 51.8385 9.7532 338.4938 352.6123 36.9215 268.9681 353.8689 7.1637 353.0160 330.2651 357.4903 355.2080 20.9417 0.6354 359.8744 356.0704 24.0160 0.8906 18.7828 7.2031 5.9042 17.5656 15.4764 358.7759 334.4987 328.0283 
-1.9134 87.1940 78.9766 356.4604 352.6866 174.2889 355.2524 347.1714 2.8526 1.3556 10.9944 3.2676 353.4136 348.9494 0.3732 359.7640 4.5857 1.0173 336.5627 356.9387 14.3154 318.3821 49.0144 351.7447 8.9094 356.2176 314.3075 86.6176 356.3885 343.0220 27.4037 356.2691 344.7226 43.8450 51.2532 7.8997 338.6812 352.9387 35.5992 269.7721 353.9920 7.6595 352.6199 330.2983 357.1035 354.9064 22.2826 0.8937 0.6428 356.0462 23.5915 0.4925 18.3191 6.9374 5.9872 19.6359 14.9261 1.0147 335.2068 329.4763 
-1.9570 87.2981 77.7408 356.2259 352.7306 174.5714 354.9485 347.3153 2.7879 1.2454 10.8515 3.2302 353.8344 348.5587 0.2626 359.0242 5.2088 0.9131 336.5202 357.0122 13.9178 318.8021 49.3145 351.2482 9.1489 356.0617 314.1106 86.6241 356.3022 342.9026 27.2760 356.2630 344.6829 45.7082 50.3073 5.8797 338.9890 353.2940 34.5127 270.1976 354.1807 8.4198 352.0577 330.5163 356.7284 355.0440 23.3505 0.6879 1.0483 355.9380 23.7085 0.1347 17.6590 6.1064 6.1281 22.0965 14.9393 2.6080 336.1654 330.3893 
-1.9930 87.3988 76.4840 356.1189 352.8579 174.7999 354.8812 347.3853 2.7620 1.0344 11.1167 3.2256 353.9733 347.9703 0.2012 358.5701 5.6945 0.9034 336.6998 357.1064 13.8105 319.1140 49.6602 350.3622 9.5903 355.7948 313.9087 86.4684 356.3521 342.5386 27.0516 356.2886 344.7571 47.2885 49.5889 4.2782 339.1773 353.5745 33.3943 270.7260 354.6147 9.0724 351.6818 331.0304 356.5842 355.0663 24.1265 0.2208 1.7166 355.8023 24.2592 359.7607 17.0235 5.2941 6.4789 24.4932 14.6163 3.9956 337.7294 331.3936 
-2.0176 87.4783 75.2983 356.0769 353.0377 174.8869 354.8835 347.7355 2.7853 0.8686 10.9029 3.2526 353.7830 348.0630 0.2093 358.6382 5.7969 0.9322 336.7561 357.1490 13.7576 319.5404 50.2276 349.5842 10.0577 355.5375 313.7084 86.6842 356.3887 342.7301 26.9334 356.3784 345.0390 48.7873 48.7264 2.3362 339.5702 353.9130 32.5672 271.3901 355.2558 9.8739 351.3479 331.6859 356.7385 355.3950 24.8317 359.0983 2.6134 355.7076 24.2479 359.3450 16.1246 4.1030 6.6892 27.3569 14.5268 5.5069 339.4693 332.6072 
-2.0504 87.5290 73.9790 356.1121 353.3918 174.8668 355.0762 347.9898 2.8561 0.5629 10.9877 3.3209 353.9661 347.5956 0.3299 358.1913 6.8327 1.0968 336.8722 357.1367 13.8309 320.1830 50.6582 348.5438 10.4067 355.3873 313.5870 86.7048 356.0562 342.6993 26.8813 356.4331 345.2665 49.8970 48.1367 0.7367 339.8788 354.1870 31.7605 272.0891 356.0392 10.2238 351.0424 332.8782 356.9431 355.8568 24.9938 358.0644 3.1496 355.3552 24.7053 358.8876 15.4617 3.1921 7.0796 29.9722 13.7714 7.4106 341.4574 333.9989 
-2.0711 87.5682 72.7666 356.2152 353.7270 174.9239 355.1408 348.4636 2.9301 0.5617 10.7487 3.3713 353.9088 347.8073 0.3209 358.1033 7.0999 1.0903 336.9193 357.1686 13.7285 320.4703 51.0623 347.9020 10.6583 355.2743 313.1740 87.0236 356.0252 342.8473 26.7676 356.4834 345.2493 50.4473 47.6310 359.7031 340.4898 354.5178 31.0039 272.7890 356.5133 10.7388 350.7520 333.8795 357.6687 356.7163 25.4215 356.2876 3.8286 354.8854 25.1982 358.4924 14.5386 1.9754 7.2052 32.9700 13.8961 9.5822 343.6385 334.7601 
-2.0946 87.6196 71.5607 356.2910 353.9301 174.9239 355.2531 348.7411 2.9202 0.5232 10.6232 3.3381 353.8644 347.8793 0.3476 358.0320 7.4693 1.1260 337.0614 357.1747 13.8909 321.0509 51.4415 346.7300 10.9284 355.1147 312.6320 87.5563 356.1587 343.4182 26.7108 356.5188 345.3302 50.8676 46.9010 358.5101 341.1211 354.8235 30.6166 273.7920 357.0500 11.6084 350.4976 334.8095 357.9100 357.1576 25.6682 355.6977 4.3439 354.1732 25.5480 358.0774 13.2968 0.9077 7.3162 36.1480 13.0128 10.3262 346.2369 336.1197 
-2.1186 87.6729 70.3722 356.2011 354.1794 174.7072 355.0571 349.1676 3.0388 0.7012 10.1723 3.4513 353.8690 348.1994 0.4483 357.8172 7.8160 1.2338 336.9767 357.1248 14.0790 321.4658 51.7145 346.0708 11.0967 355.0084 312.0612 88.0431 356.0101 343.5742 27.0909 356.5219 346.0192 51.0444 45.3614 356.3136 342.1115 355.1942 30.9623 274.5540 357.5709 13.2583 350.2743 335.9383 357.8844 357.1980 25.4881 355.9718 4.9568 353.8376 25.6369 357.4197 12.0199 0.5356 7.6689 39.2903 12.4760 9.7468 349.1281 336.7365 
-2.1251 87.7460 69.2770 356.1251 354.2228 174.6470 354.9963 349.4017 2.9314 0.5360 9.8450 3.3460 354.3857 348.4053 0.5450 357.4399 8.1191 1.2953 337.0607 357.0960 14.2668 322.2853 52.0708 344.9507 11.3966 354.7889 311.4777 88.2599 355.8897 343.7560 27.3660 356.5180 346.0136 50.8127 44.7491 355.6161 342.9657 355.4877 30.5861 275.5597 357.7185 15.1243 350.0723 336.7865 357.0758 356.9208 25.3253 357.0781 5.4751 353.5575 25.4311 356.8577 10.3441 0.0793 8.1420 42.6801 11.5972 8.3596 351.9167 337.3924 
